<?xml version="1.0" encoding="utf-8"?>
<!-- Generator: Adobe Illustrator 24.1.1, SVG Export Plug-In . SVG Version: 6.00 Build 0)  -->
<svg version="1.1" id="Layer_1" xmlns="http://www.w3.org/2000/svg" xmlns:xlink="http://www.w3.org/1999/xlink" x="0px" y="0px"
	 viewBox="0 0 296.7 296.7" style="enable-background:new 0 0 296.7 296.7;" xml:space="preserve">
<style type="text/css">
	.st0{fill:#7C7C7C;stroke:#FFFFFF;stroke-width:20;stroke-miterlimit:10;}
	.st1{fill:#FFFFFF;}
</style>
<circle class="st0" cx="148.3" cy="148.3" r="137.5"/>
<path class="st1" d="M189.3,57.4h-81.9c-10.8,0-19.6,8.8-19.6,19.6v162.2h121.1V77C208.9,66.2,200.1,57.4,189.3,57.4z M197.9,217.6
	c0,1.9-1.6,3.5-3.5,3.5h-91.8c-1.9,0-3.5-1.6-3.5-3.5v-3.8c0-1.9,1.6-3.5,3.5-3.5h91.8c1.9,0,3.5,1.6,3.5,3.5V217.6z M197.9,199.1
	c0,1.9-1.6,3.5-3.5,3.5l0,0h-91.8c-1.9,0-3.5-1.6-3.5-3.5l0,0v-3.7c0-1.9,1.6-3.5,3.5-3.5l0,0h91.8c1.9,0,3.5,1.6,3.5,3.5l0,0V199.1
	z M197.9,179.9c0,1.9-1.6,3.5-3.5,3.5h-91.8c-1.9,0-3.5-1.6-3.5-3.5v-3.8c0-1.9,1.6-3.5,3.5-3.5l0,0h91.8c1.9,0,3.5,1.6,3.5,3.5l0,0
	V179.9z M197.9,161.4c0,1.9-1.6,3.5-3.5,3.5h-91.8c-1.9,0-3.5-1.6-3.5-3.5v-3.8c0-1.9,1.6-3.5,3.5-3.5h91.8c1.9,0,3.5,1.6,3.5,3.5
	V161.4z M197.9,142.3c0,1.9-1.6,3.5-3.5,3.5h-91.8c-1.9,0-3.5-1.6-3.5-3.5v-3.8c0-1.9,1.6-3.5,3.5-3.5h91.8c1.9,0,3.5,1.6,3.5,3.5
	V142.3z M197.9,123.8c0,1.9-1.6,3.5-3.5,3.5h-91.8c-1.9,0-3.5-1.6-3.5-3.5l0,0V120c0-1.9,1.6-3.5,3.5-3.5h91.8
	c1.9,0,3.5,1.6,3.5,3.5V123.8z M197.9,104.6c0,1.9-1.6,3.5-3.5,3.5h-91.8c-1.9,0-3.5-1.6-3.5-3.5v-3.8c0-1.9,1.6-3.5,3.5-3.5l0,0
	h91.8c1.9,0,3.5,1.6,3.5,3.5l0,0V104.6z M197.9,86.2c0,1.9-1.6,3.5-3.5,3.5h-91.8c-1.9,0-3.5-1.6-3.5-3.5v-3.8
	c0-1.9,1.6-3.5,3.5-3.5h91.8c1.9,0,3.5,1.6,3.5,3.5V86.2z"/>
</svg>
