<svg id="Layer_1" data-name="Layer 1" xmlns="http://www.w3.org/2000/svg" viewBox="0 0 295.99 289.77"><defs><style>.cls-1{fill:#142547;stroke:#fff;stroke-miterlimit:10;stroke-width:20px;}.cls-2{fill:#fff;}</style></defs><ellipse class="cls-1" cx="147.99" cy="144.89" rx="137.99" ry="134.89"/><rect class="cls-2" x="90.59" y="89.92" width="30.68" height="32.07" transform="translate(103.94 -48.98) rotate(45)"/><rect class="cls-2" x="135.62" y="88.92" width="30.68" height="32.07" transform="translate(116.42 -81.11) rotate(45)"/><rect class="cls-2" x="180.73" y="87.92" width="30.68" height="32.07" transform="translate(128.93 -113.31) rotate(45)"/><rect class="cls-2" x="89.55" y="134.95" width="30.68" height="32.07" transform="translate(135.48 -35.06) rotate(45)"/><rect class="cls-2" x="134.57" y="133.95" width="30.68" height="32.07" transform="translate(147.96 -67.19) rotate(45)"/><rect class="cls-2" x="179.68" y="132.94" width="30.68" height="32.07" transform="translate(160.46 -99.38) rotate(45)"/><rect class="cls-2" x="88.59" y="179.97" width="30.68" height="32.07" transform="translate(167.03 -21.19) rotate(45)"/><rect class="cls-2" x="133.62" y="178.97" width="30.68" height="32.07" transform="translate(179.51 -53.32) rotate(45)"/><rect class="cls-2" x="178.72" y="177.97" width="30.68" height="32.07" transform="translate(192.01 -85.51) rotate(45)"/><rect class="cls-2" x="132.81" y="223.99" width="30.68" height="32.07" transform="translate(211.11 -39.57) rotate(45)"/><rect class="cls-2" x="136.58" y="43.94" width="30.68" height="32.07" transform="translate(84.9 -94.97) rotate(45)"/><rect class="cls-2" x="224.66" y="132.03" width="30.68" height="32.07" transform="translate(172.99 -131.45) rotate(45)"/><rect class="cls-2" x="44.67" y="135.85" width="30.68" height="32.07" transform="translate(122.97 -3.06) rotate(45)"/></svg>