<svg id="Layer_1" data-name="Layer 1" xmlns="http://www.w3.org/2000/svg" viewBox="0 0 295 295"><defs><style>.cls-1{fill:#600000;stroke:#fff;stroke-miterlimit:10;stroke-width:20px;}.cls-2{fill:#fff;}</style></defs><circle class="cls-1" cx="147.5" cy="147.5" r="137.5"/><polygon class="cls-2" points="218.41 149.51 174.79 174.69 174.79 124.33 218.41 149.51"/><polygon class="cls-2" points="79.71 149.51 123.33 124.33 123.33 174.69 79.71 149.51"/><rect class="cls-2" x="131.53" y="132.53" width="35.61" height="35.61" transform="translate(149.22 -62.4) rotate(45)"/><polygon class="cls-2" points="218.41 99.14 174.79 124.33 174.79 73.96 218.41 99.14"/><polygon class="cls-2" points="79.71 99.14 123.33 73.96 123.33 124.33 79.71 99.14"/><rect class="cls-2" x="131.53" y="82.16" width="35.61" height="35.61" transform="translate(113.6 -77.15) rotate(45)"/><polygon class="cls-2" points="217.86 199.88 174.25 225.06 174.25 174.69 217.86 199.88"/><polygon class="cls-2" points="79.16 199.88 122.78 174.69 122.78 225.06 79.16 199.88"/><rect class="cls-2" x="130.99" y="182.9" width="35.61" height="35.61" transform="translate(184.67 -47.26) rotate(45)"/><polygon class="cls-2" points="147.97 268.68 122.78 225.06 173.15 225.06 147.97 268.68"/><rect class="cls-2" x="62.73" y="107.35" width="35.61" height="35.61" transform="translate(111.26 -21.12) rotate(45)"/><rect class="cls-2" x="62.18" y="157.71" width="35.61" height="35.61" transform="translate(146.71 -5.98) rotate(45)"/><rect class="cls-2" x="201.71" y="107.35" width="35.61" height="35.61" transform="translate(151.96 -119.39) rotate(45)"/><rect class="cls-2" x="201.16" y="157.71" width="35.61" height="35.61" transform="translate(187.42 -104.25) rotate(45)"/><polygon class="cls-2" points="148.51 30.34 173.7 73.96 123.33 73.96 148.51 30.34"/></svg>