<svg id="Layer_1" data-name="Layer 1" xmlns="http://www.w3.org/2000/svg" viewBox="0 0 295 295"><defs><style>.cls-1{fill:#085d34;stroke:#fff;stroke-miterlimit:10;stroke-width:20px;}.cls-2{fill:#242329;}.cls-3{fill:#fff;}</style></defs><circle class="cls-1" cx="147.5" cy="147.5" r="137.5"/><circle class="cls-2" cx="143.08" cy="194.94" r="3.41"/><circle class="cls-2" cx="103.63" cy="204.66" r="5.34"/><path class="cls-3" d="M142.41,153l-3.76-4.32Q108.86,113,80.85,75.44c-.71-1-.71-1,.1-1.79,1.73-1.82,3.47-3.61,5.16-5.47.51-.56.76-.45,1.18.1C96.18,79.93,105,91.7,114,103.14c11.1,14,22.45,27.7,33.68,41.53.84,1,.62,1,1.51,0q27.61-33,53.77-67.52c2.25-3,4.47-5.93,6.72-8.93.36-.49.59-.56,1-.09,1.82,2,3.64,3.89,5.49,5.78a.8.8,0,0,1,.07,1.28c-7.66,10-15.21,20.2-23,30.08-10.91,13.79-22,27.36-33,41-1.63,2-3.31,4-5,6-.19.21-.36.45-.71.9.43.39.85.8,1.25,1.24q21,24.6,42.8,48.19a190.12,190.12,0,0,0,18.1,17c.17.15.35.27.52.44a1.39,1.39,0,0,1,.37,1.7h0a1,1,0,0,1-.2.29q-3.16,4.29-6.35,8.53c-.57.77-1.19.65-1.88-.23-2.32-3-4.64-6-7-8.92-6.18-7.72-12.95-14.69-19.44-22-11.29-12.74-22.43-25.46-33.57-38.17-.84-1-.64-1-1.51,0q-21.22,25-43.28,48.93c-5.81,6.34-11.3,13.07-16.57,20.05-.84,1.16-1.41,1.17-2.26,0l-5.93-8c-.69-.93-.65-1.66.18-2.34a227.27,227.27,0,0,0,26.64-26.23q17.63-19.89,35.11-39.94A7.49,7.49,0,0,1,142.41,153Z" transform="translate(-0.83 0.17)"/><path class="cls-3" d="M215.08,77.79c9.28,13.71,20.67,23.19,35.3,26.83a.41.41,0,0,1,0,.19A98.87,98.87,0,0,1,235.68,125,56.25,56.25,0,0,1,211,140.31a53.47,53.47,0,0,1-20.58,1.75c-2.07-.21-4.14-.52-6.4-.8.25-.38.36-.57.49-.74,2.47-3.09,4.94-6.18,7.44-9.24a1.19,1.19,0,0,1,1-.37,19.61,19.61,0,0,0,18.41-5.42,24.19,24.19,0,0,0,6.33-9.83,13,13,0,0,0-1.08-10.26,37.22,37.22,0,0,0-5-7.34c-1.93-2.26-3.91-4.44-5.88-6.65-.32-.36-.48-.61-.11-1.1,3.13-4.1,6.23-8.22,9.34-12.34A1.07,1.07,0,0,1,215.08,77.79Z" transform="translate(-0.83 0.17)"/><path class="cls-3" d="M112.78,141.21c-1.68.26-3.28.55-4.87.73a58.37,58.37,0,0,1-16-.25,52.32,52.32,0,0,1-22.33-9.32c-8.08-5.81-14.61-13.59-20.14-22.63-.93-1.5-1.83-3-2.74-4.55a6.58,6.58,0,0,1-.3-.59c14.63-3.6,26-13.1,35.33-26.81l2.3,3c2.35,3.11,4.69,6.23,7.06,9.31a.9.9,0,0,1,0,1.37c-2.84,3.29-5.67,6.59-8.4,10a25,25,0,0,0-2.39,3.89,13.06,13.06,0,0,0-.07,12.84c3.78,7.17,9.09,11.72,16.24,12.91a19.79,19.79,0,0,0,7.55-.23,1,1,0,0,1,.84.3q3.84,4.71,7.64,9.47A4.41,4.41,0,0,1,112.78,141.21Z" transform="translate(-0.83 0.17)"/><path class="cls-3" d="M99,95.57c-1-1.15-2-2.2-3-3.28-2.17-2.42-4.29-4.84-6.5-7.25-.37-.4-.43-.65,0-1a6.1,6.1,0,0,1,2.65-1.68,3.49,3.49,0,0,1,3.46,1c1.77,1.88,3.49,3.8,5.18,5.75a3.67,3.67,0,0,1-.11,4.88C100.19,94.5,99.59,95,99,95.57Z" transform="translate(-0.83 0.17)"/><path class="cls-3" d="M207.7,84.5l-9.93,11.06c-1.2-1.08-2.52-1.93-2.71-3.67A3.64,3.64,0,0,1,195.9,89c1.68-1.89,3.36-3.8,5.09-5.65a3.62,3.62,0,0,1,5-.36C206.57,83.5,207.08,84,207.7,84.5Z" transform="translate(-0.83 0.17)"/><polyline class="cls-3" points="107.08 231.18 147.6 182.97 188.12 231.18"/><polyline class="cls-3" points="187.74 66.71 147.22 114.92 106.7 66.71"/></svg>