<svg id="Layer_1" data-name="Layer 1" xmlns="http://www.w3.org/2000/svg" viewBox="0 0 295 295"><defs><style>.cls-1,.cls-2{fill:#242329;}.cls-1{stroke:#fff;stroke-miterlimit:10;stroke-width:20px;}.cls-3{fill:#fff;}</style></defs><circle class="cls-1" cx="147.5" cy="147.5" r="137.5"/><circle class="cls-2" cx="143.08" cy="193.94" r="3.41"/><path class="cls-3" d="M89.58,223.68l0,0c5.11-6.11,12.32-10.34,18.12-10.46a4.4,4.4,0,0,0,3.24-2L121,197c1.1-1.57,1.17-3.4.14-4.2l-9.18-7.19c-1-.8-2.78-.29-4,1.16L96.42,200a4.28,4.28,0,0,0-1.12,3.64C96.7,209.41,94.73,217.09,89.58,223.68Z" transform="translate(-0.83 -0.83)"/><path class="cls-3" d="M125.54,189.65l-11.46-9c-1.47-1.15-2-3-1.18-4.22l20.22-30.61c.88-1.33,3-1.39,4.59-.13l16.06,12.56c1.61,1.26,2.06,3.32,1,4.49l-24.83,27C128.93,190.86,127,190.81,125.54,189.65Z" transform="translate(-0.83 -0.83)"/><path class="cls-3" d="M203.94,65.8l11.45,9c1.48,1.15,1.07,4.18-.93,6.93l-50.09,68.79c-2.18,3-5.39,4.47-7,3.21l-16.06-12.56c-1.61-1.26-.95-4.73,1.43-7.57l54.69-65.19C199.62,65.77,202.46,64.64,203.94,65.8Z" transform="translate(-0.83 -0.83)"/><rect class="cls-3" x="203.77" y="67.48" width="15.23" height="1.96" rx="0.5" transform="translate(86.24 -116.53) rotate(38.03)"/><circle class="cls-2" cx="103.63" cy="203.66" r="5.34"/><path class="cls-3" d="M92.13,228.53a28.44,28.44,0,0,0,9.88,7.93,54,54,0,0,0,11.93,4.25c8.23,2,16.77,2.84,24.94,1.67a40.83,40.83,0,0,0,11.77-3.15,31.91,31.91,0,0,0,9.77-7c5.61-5.91,9.14-13.71,11.1-21.77,1-4,1.47-8.32,2.68-12.66a27.44,27.44,0,0,1,2.62-6.43,17,17,0,0,1,4.93-5.34,20.74,20.74,0,0,1,6.51-2.81,42.54,42.54,0,0,1,6.66-1.08c4.38-.41,8.65-.46,12.68-1.13s7.88-2,10.74-4.49a13.27,13.27,0,0,0,4.5-9.92,19.09,19.09,0,0,0-3.2-11,29.4,29.4,0,0,0-8.64-8.3,61.54,61.54,0,0,0-11.11-5.61,107.49,107.49,0,0,0-12-4c-8.18-2.21-16.59-3.71-25-5.28a214.78,214.78,0,0,1-25.31-5.83,87.33,87.33,0,0,1-23.8-11.1,57.16,57.16,0,0,1-10-8.75c-.38-.41-.77-.81-1.12-1.24l-1-1.31c-.7-.87-1.4-1.75-2-2.71a21.51,21.51,0,0,1-3-6.39,12.49,12.49,0,0,1,.2-7.5,14.48,14.48,0,0,1,4.17-6.07A20.2,20.2,0,0,1,107,77.8a25.9,25.9,0,0,1,6.71-1.55c4.49-.4,8.73-.2,13-.44s8.48-.6,12.71-1.2c2.11-.29,4.21-.64,6.31-1a22.88,22.88,0,0,0,6-1.78A9.26,9.26,0,0,0,154.15,70a6.48,6.48,0,0,0,1.52-2.6,6.19,6.19,0,0,0,.16-3.08,4.28,4.28,0,0,0-1.66-2.62,4.44,4.44,0,0,1,1.94,2.54,6.78,6.78,0,0,1,.11,3.29,7.3,7.3,0,0,1-1.44,3,10.3,10.3,0,0,1-2.57,2.18A23.7,23.7,0,0,1,146,75.15q-3.14.82-6.3,1.52-6.35,1.38-12.82,2.17c-4.32.57-8.69.7-12.72,1.37a33.74,33.74,0,0,0-5.81,1.38,14.86,14.86,0,0,0-4.86,2.89,10.44,10.44,0,0,0-3.06,4.4,8.51,8.51,0,0,0-.12,5.17,17.91,17.91,0,0,0,2.49,5.19c.54.84,1.19,1.64,1.83,2.45l1,1.21c.33.4.69.76,1,1.15a52.92,52.92,0,0,0,9.33,8.13,84,84,0,0,0,22.72,10.57,211,211,0,0,0,24.85,5.72c8.43,1.57,17,3.08,25.36,5.35a111.08,111.08,0,0,1,12.44,4.11,65.77,65.77,0,0,1,11.84,6,33.54,33.54,0,0,1,9.78,9.44,23.11,23.11,0,0,1,3.85,13.34,18.35,18.35,0,0,1-1.55,7,16.66,16.66,0,0,1-4.34,5.83,21.27,21.27,0,0,1-6.08,3.6,31.94,31.94,0,0,1-6.61,1.8c-4.45.74-8.8.77-13,1.17s-8.22,1.13-11.3,3.22a12.86,12.86,0,0,0-3.73,4.06,23,23,0,0,0-2.21,5.47c-1.12,3.93-1.58,8.2-2.66,12.53-2.08,8.56-5.82,17-12.08,23.59a36,36,0,0,1-11,7.92,42.06,42.06,0,0,1-13,3.52,68.44,68.44,0,0,1-26-3.57,55.17,55.17,0,0,1-11.91-5.35A29.11,29.11,0,0,1,92.13,228.53Z" transform="translate(-0.83 -0.83)"/></svg>