<svg id="Layer_1" data-name="Layer 1" xmlns="http://www.w3.org/2000/svg" viewBox="0 0 295 295"><defs><style>.cls-1{fill:#242329;stroke:#fff;stroke-miterlimit:10;stroke-width:20px;}.cls-2{fill:#fff;}</style></defs><circle class="cls-1" cx="147.5" cy="147.5" r="137.5"/><path class="cls-2" d="M248.85,149.87c-29.6-4.52-30.1-9.62-11.67-28.54-20.3,9.18-21.68,4.47-17.84-11.16-7.4,6.65-9.57,2.39-12.08-2.43-2.54-3.17-5.42-6.89-8.6-10.28-4.24-4.53-9-8.48-7.38-13-12.06-2-17.7-4.55-4.12-22.74-25.48,14.68-31.75,13.74-42.7-23.45-2,37.19-8.26,38.13-32.19,28.6,12,13,6.39,15.58-2.41,18.56-1.61,3.5-6.4,7.49-10.64,12-3.18,3.39-6.06,7.12-8.66,9.46C88.11,112.56,86,116.82,77.8,108c4.58,17.76,3.2,22.47-21.3,10.2,22.63,22,22.13,27.11-14.39,33.51,36.52,3.95,37,9,16.44,31.48,22.45-12.66,23.83-7.95,20.51,8.58,6.88-7.55,9-3.29,11.59.92a84.23,84.23,0,0,0,8.57,10.9c4.24,4.52,9,8.47,6.59,14.8,12.85.18,18.49,2.75,13.12,20.76,17.25-14.52,23.52-13.59,31.83,9.81,4.63-23.4,10.9-24.33,27.11-14.66-4.27-13.16,1.36-15.74,9.33-18.17,2.45-4.07,7.23-8,11.47-12.54,3.19-3.4,6.07-7.12,8.75-9.89,2.39-5.24,4.56-9.48,12.48-2.91-4.37-15.55-3-20.26,17.95-11.87C218.75,160.76,219.25,155.7,248.85,149.87ZM148.71,208.38a59.73,59.73,0,1,1,59.7-59.76v0A59.72,59.72,0,0,1,148.71,208.38Z" transform="translate(-0.83 0.17)"/><path class="cls-2" d="M187,149.61c-16.71,5.79-19.09,11.11-10.61,26.33-16.18-7.53-21.5-5.15-26.27,11.94-7-17.09-12.32-19.47-27.91-10.3,7.91-16.86,5.53-22.16-12.27-28,17.8-6,20.18-11.28,12-28.21,15.83,9.24,21.18,6.86,28.15-10.5,4.75,17.38,10.07,19.77,26.47,12.18C167.86,138.34,170.24,143.66,187,149.61Z" transform="translate(-0.83 0.17)"/></svg>