<?xml version="1.0" encoding="utf-8"?>
<!-- Generator: Adobe Illustrator 24.1.1, SVG Export Plug-In . SVG Version: 6.00 Build 0)  -->
<svg version="1.1" id="Layer_1" xmlns="http://www.w3.org/2000/svg" xmlns:xlink="http://www.w3.org/1999/xlink" x="0px" y="0px"
	 viewBox="0 0 300 300" style="enable-background:new 0 0 300 300;" xml:space="preserve">
<style type="text/css">
	.st0{fill:#242329;stroke:#FDFDFF;stroke-width:20;stroke-miterlimit:10;}
	.st1{fill:#FFFFFF;}
</style>
<circle class="st0" cx="150" cy="150" r="139.1"/>
<path class="st1" d="M230.8,72.8c-6.4,0-12.4,0-18.5,0c-20.8-0.2-41.4-1.6-59.5-12.5c-1.3-0.5-2.8-0.4-4,0.2
	c-13.9,8-29.1,11.4-45.4,11.7c-10.6,0.2-21.2,0-32.2,0c0,2.2-0.1,3.1,0,4.1c2.3,29.7,4.7,59.4,7.2,89.1c0.6,7.7,0.7,15.8,3.1,23.1
	c6.9,21.3,23.4,36.1,42.6,48.9c8.2,5.4,15.9,11.4,23.9,17.1l2.6,1.9c13-9,25.9-17.4,38-26.7c7.1-5.6,13.6-11.9,19.4-18.8
	c8.8-10.2,14.4-21.8,15.4-34.9c2.5-32.9,5-65.7,7.5-98.6C230.9,76.1,230.8,74.7,230.8,72.8z M185.5,120.3l-5.3,0.6
	c-2.7,0.3-5.5,0.6-8.2,0.9s-5.5,0.5-8.3,0.8c-1.4,0.1-2.8,0.1-4.1,0.1c-0.7,0-1.3,0.4-1.3,0.9l0,0c0.1,0.6,0.1,1.2,0.1,1.8
	c0,1.1-0.1,2.2-0.1,3.3c0,0.9,0.1,1.7,0.1,2.6s-0.1,1.8-0.1,2.7c0,1.1,0.1,2.3,0.1,3.4s-0.1,2.3-0.1,3.5v20.4c0,1.6-0.1,3.2-0.1,4.9
	c0,1.4,0,2.7,0.1,4.1v4.5c0,1.5-0.1,2.8-0.1,4.2c0,1.4,0.1,2.8,0.1,4.2c0,2.5-0.1,4.9-0.1,7.4c0,2.5,0,5.1,0,7.6v4.9
	c0,0.9,0,1.8-0.1,2.7v4.3c0,0.9-0.1,1.7-0.1,2.6s0.1,1.7,0.1,2.6c0,1-0.1,1.9-0.3,2.9c-0.1,0.7-0.3,1.4-0.5,2.1
	c-0.4,1.1-0.8,2.3-1.3,3.4c-0.5,1.2-0.9,2.5-1.4,3.7c-0.7,1.5-1.5,3-2.3,4.4c-0.3,0.6-0.8,1.2-1.2,1.8c-0.6,0.6-1.1,0.6-1.7,0
	c-0.4-0.5-0.7-1-1-1.5c-0.8-1.4-1.6-2.8-2.3-4.3c-0.5-0.9-0.8-1.9-1.2-2.9s-0.8-1.9-1.1-2.8c-0.2-0.7-0.4-1.4-0.6-2.2
	c-0.3-1.1-0.6-2.2-0.7-3.3c-0.1-1.1-0.1-2.1,0-3.2v-18.1c0-0.9,0.1-1.8,0.1-2.7s-0.1-1.7,0-2.6c0.1-0.9,0.1-1.7,0.1-2.6
	c0-1.4,0-2.8,0-4.2v-6.1c0-2.7,0-5.4,0-8.1c0-2.4,0-4.8,0-7.2c0-1.4,0.1-2.8,0.2-4.2c0-1.3-0.1-2.8-0.1-4.2c0-1.2,0.1-2.3,0.1-3.5
	v-21.3c0-1.8,0.1-3.7,0.1-5.5c0-0.1-0.4-0.3-0.6-0.4c-1.6-0.2-3.3-0.2-4.9-0.4c-1.4-0.1-2.9-0.2-4.3-0.4c-1.4-0.2-3-0.4-4.5-0.6
	c-2-0.3-4-0.5-5.9-0.8c-1.7-0.3-3.5-0.6-5.2-0.8c-1.1-0.2-1.5-0.3-1.5-0.9c0.1-1.2,0.1-2.5,0.2-3.8l0,0c0.2,0,0.4,0,0.6,0
	c2.4,0,4.8,0,7.3,0.1c1.7,0,3.3,0.1,5,0.1h6.2c1.3,0,2.5,0.1,3.8,0.1c1.3,0,2.7,0,4,0c0.4,0,0.6,0,0.6-0.4c0.1-1.2,0.4-2.4,0.6-3.6
	s0.5-2.5,0.7-3.8c0.2-1.3,0.3-2.5,0.5-3.8c0.2-1.3,0.5-2.5,0.8-3.8c0.3-2,0.7-3.9,0.9-5.9c0-0.3-0.2-0.5-0.4-0.7
	c-0.5-0.3-1.2-0.5-1.7-0.9c-1.3-0.8-2.2-2.1-2.6-3.6c-0.2-1.1,0-2.2,0.7-3.2c1.2-1.9,3.7-3.1,6.6-3.4c1.3-0.1,2.5,0,3.8,0.2
	c1.2,0.2,2.3,0.6,3.3,1.2c0.7,0.4,1.3,1,1.8,1.6c0.8,0.8,1.2,1.8,1.1,2.9c0,1.2-0.5,2.3-1.4,3.2c-0.8,0.8-1.8,1.5-2.9,1.9
	c-0.3,0.1-0.5,0.3-0.6,0.5c0,0.5,0,1,0.1,1.5c0.2,1,0.4,2,0.5,3c0.2,1.3,0.3,2.6,0.5,3.8c0.3,1.6,0.6,3.2,0.8,4.8
	c0.2,1.3,0.3,2.5,0.5,3.8c0.2,1.2,0.5,2.8,0.7,4.1c0,0.3,0.2,0.5,0.7,0.5c2.3,0,4.7,0.1,7,0.1c1.7,0,3.4,0,5.1,0
	c1.4,0,2.7,0.1,4.1,0.1c3.1,0,6.2,0.1,9.3,0.1c1.5,0,1.5,0.1,1.5,1.1C185.5,117.8,185.5,119.1,185.5,120.3z"/>
</svg>
