<svg id="Layer_1" data-name="Layer 1" xmlns="http://www.w3.org/2000/svg" viewBox="0 0 295 295"><defs><style>.cls-1{fill:#404040;stroke:#fff;stroke-width:20px;}.cls-1,.cls-3{stroke-miterlimit:10;}.cls-2{fill:#fff;}.cls-3{fill:none;stroke:#404040;stroke-width:3px;}</style></defs><circle class="cls-1" cx="147.5" cy="147.5" r="137.5"/><path class="cls-2" d="M218.27,216.39l1,7.78-7.57-2.3a10.39,10.39,0,0,1-4.91-3.33L79.65,64.29l9-7.46L216,211.2A10.32,10.32,0,0,1,218.27,216.39Z" transform="translate(-0.83 -0.83)"/><line class="cls-3" x1="108.58" y1="90.34" x2="213.87" y2="218.04"/><rect class="cls-2" x="89.44" y="56.03" width="14.69" height="39.67" transform="translate(-26.98 78.07) rotate(-39.51)"/><rect class="cls-2" x="97.41" y="86.18" width="20.41" height="5.63" transform="translate(-32.86 87.96) rotate(-39.51)"/><path class="cls-2" d="M80.71,216.86l-1,7.78,7.57-2.3A10.34,10.34,0,0,0,92.16,219L219.33,64.76l-9-7.46L83,211.67A10.32,10.32,0,0,0,80.71,216.86Z" transform="translate(-0.83 -0.83)"/><line class="cls-3" x1="188.75" y1="90.81" x2="83.46" y2="218.51"/><rect class="cls-2" x="194.85" y="56.5" width="14.69" height="39.67" transform="translate(308.81 263.03) rotate(-140.49)"/><rect class="cls-2" x="181.16" y="86.65" width="20.41" height="5.63" transform="translate(281.27 279.41) rotate(-140.49)"/></svg>